# AST/ASF file generated using VICON BodyLanguage
# -----------------------------------------------
:version 1.10
:name VICON
:units
  mass 1.0
  length 0.45
  angle deg
:documentation
   .ast/.asf automatically generated from VICON data using
   VICON BodyBuilder and BodyLanguage model FoxedUp or BRILLIANT.MOD
:root
   order TX TY TZ RX RY RZ
   axis XYZ
   position 0 0 0  
   orientation 0 0 0 
:bonedata
  begin
     id 1 
     name lhipjoint
     direction 0.702568 -0.596508 0.388042 
     length 2.56661 
     axis 0 0 0  XYZ
  end
  begin
     id 2 
     name lfemur
     direction 0.34202 -0.939693 0  
     length 6.58374  
     axis 0 0 20  XYZ
    dof rx ry rz
    limits (-160.0 20.0)
           (-70.0 70.0)
           (-60.0 70.0)
  end
  begin
     id 3 
     name ltibia
     direction 0.34202 -0.939693 0   
     length 6.62538   
     axis 0 0 20   XYZ
    dof rx
    limits (-10.0 170.0)
  end
  begin
     id 4 
     name lfoot
     direction 0.10455 -0.287249 0.952133   
     length 2.26699   
     axis -90 7.62852e-016 20   XYZ
    dof rx rz
    limits (-45.0 90.0)
           (-70.0 20.0)
  end
  begin
     id 5 
     name ltoes
     direction 1.53572e-011 -4.22322e-011 1   
     length 1.12949   
     axis -90 7.62852e-016 20   XYZ
    dof rx
    limits (-90.0 20.0)
  end
  begin
     id 6 
     name rhipjoint
     direction -0.728055 -0.574632 0.373811   
     length 2.66432  
     axis 0 0 0  XYZ 
  end
  begin
     id 7 
     name rfemur
     direction -0.34202 -0.939693 0   
     length 6.66732   
     axis 0 0 -20   XYZ
    dof rx ry rz
    limits (-160.0 20.0)
           (-70.0 70.0)
           (-70.0 60.0)
  end
  begin
     id 8 
     name rtibia
     direction -0.34202 -0.939693 0   
     length 6.59288   
     axis 0 0 -20   XYZ
    dof rx
    limits (-10.0 170.0)
 end
 begin
     id 9 
     name rfoot
     direction -0.119193 -0.327479 0.93731   
     length 2.38061  
     axis -90 -7.62852e-016 -20   XYZ
    dof rx rz
    limits (-45.0 90.0)
           (-20.0 70.0)
  end
  begin
     id 10 
     name rtoes
     direction -1.53547e-011 -4.21827e-011 1   
     length 1.17899   
     axis -90 -7.62852e-016 -20   XYZ
    dof rx
    limits (-90.0 20.0)
  end
  begin
     id 11 
     name lowerback
     direction -0.000416114 0.999912 -0.0132284   
     length 2.12109   
     axis 0 0 0   XYZ
    dof rx ry rz
    limits (-20.0 45.0)
           (-30.0 30.0)
           (-30.0 30.0)
  end
  begin
     id 12 
     name upperback
     direction -0.00136371 0.99809 0.0617608   
     length 2.10067   
     axis 0 0 0   XYZ
    dof rx ry rz
    limits (-20.0 45.0)
           (-30.0 30.0)
           (-30.0 30.0)
  end
  begin
     id 13 
     name thorax
     direction -3.43026e-005 0.997776 0.0666515   
     length 2.10618   
     axis 0 0 0   XYZ
    dof rx ry rz
    limits (-20.0 45.0)
           (-30.0 30.0)
           (-30.0 30.0)
  end
  begin
     id 14 
     name lowerneck
     direction 0.0398646 0.998418 0.0396592   
     length 1.83817   
     axis 0 0 0   XYZ
    dof rx ry rz
    limits (-20.0 45.0)
           (-30.0 30.0)
           (-30.0 30.0)
  end
  begin
     id 15 
     name upperneck
     direction -0.0367268 0.961527 -0.272244   
     length 1.81975   
     axis 0 0 0   XYZ
    dof rx ry rz
    limits (-20.0 45.0)
           (-30.0 30.0)
           (-30.0 30.0)
  end
  begin
     id 16
     name head
     direction -0.0182665 0.99536 -0.0944669  
     length 1.86026  
     axis 0 0 0   XYZ
    dof rx ry rz
    limits (-20.0 45.0)
           (-30.0 30.0)
           (-30.0 30.0)
  end
  begin
     id 17 
     name lclavicle
     direction 0.924239 0.361045 0.124212  
     length 3.26878  
     axis 0 0 0   XYZ
    dof ry rz
    limits (-20.0 10.0)
           (0.0 20.0)
  end
  begin
     id 18 
     name lhumerus
     direction 1 -4.48968e-011 -2.56583e-027   
     length 4.58538   
     axis 180 -30 -90   XYZ
    dof rx ry rz
    limits (-60.0 90.0)
           (-90.0 90.0)
           (-90.0 90.0)
  end
  begin
     id 19
     name lradius
     direction 1 -4.4898e-011 -5.50375e-027   
     length 2.68935   
     axis 180 -30 -90   XYZ
    dof rx
    limits (-10.0 170.0)
  end
  begin
     id 20
     name lwrist
     direction 1 -4.48939e-011 -1.48955e-026   
     length 1.34468   
     axis 9.0955e-015 90 90   XYZ
    dof ry
    limits (-180.0 0.0)
 end
  begin
     id 21 
     name lhand
     direction 1 -4.48936e-011 -2.97907e-026   
     length 0.585058   
     axis 1.90115e-014 90 90   XYZ
    dof rx rz
    limits (-90.0 90.0)
           (-45.0 45.0)
  end
  begin
     id 22 
     name lfingers
     direction 1 -4.49082e-011 -5.96235e-026   
     length 0.471689   
     axis 3.80223e-014 90 90   XYZ
    dof rx
    limits (0.0 90.0)
  end
  begin
     id 23
     name lthumb
     direction 0.707107 -6.3489e-011 0.707107   
     length 0.677253   
     axis -90 45 -3.84942e-014   XYZ
    dof rx rz
    limits (-45.0 45.0)
           (-45.0 45.0)
  end
  begin
     id 24 
     name rclavicle
     direction -0.923098 0.371783 0.0983239   
     length 3.19656  
     axis 0 0 0   XYZ 
    dof ry rz
    limits (-10.0 20.0)
           (-20.0 0.0)
  end
  begin
     id 25 
     name rhumerus
     direction -1 -4.48976e-011 -2.5492e-027  
     length 4.4745   
     axis 180 30 90   XYZ
    dof rx ry rz
    limits (-90.0 60.0)
           (-90.0 90.0)
           (-90.0 90.0)
  end
  begin
     id 26 
     name rradius
     direction -1 -4.48941e-011 -4.36555e-027   
     length 2.93896   
     axis 180 30 90   XYZ
    dof rx
    limits (-10.0 170.0)
  end
  begin
     id 27 
     name rwrist
     direction -1 -4.49044e-011 -1.49032e-026   
     length 1.46948   
     axis 9.0955e-015 -90 -90   XYZ
    dof ry
    limits (-180.0 0.0)
  end
  begin
     id 28
     name rhand
     direction -1 -4.48826e-011 -2.97749e-026   
     length 0.405092   
     axis 1.90115e-014 -90 -90   XYZ
    dof rx rz
    limits (-90.0 90.0)
           (-45.0 45.0)
  end
  begin
     id 29
     name rfingers
     direction -1 -4.49209e-011 -5.96602e-026   
     length 0.326596   
     axis 3.80223e-014 -90 -90   XYZ
    dof rx
    limits (0.0 90.0)
  end
  begin
     id 30
     name rthumb
     direction -0.707107 -6.34776e-011 0.707107   
     length 0.468928   
     axis -90 -45 3.84942e-014   XYZ
    dof rx rz
    limits (-45.0 45.0)
           (-45.0 45.0)
  end
:hierarchy
  begin
    root lhipjoint rhipjoint lowerback
    lhipjoint lfemur
    lfemur ltibia
    ltibia lfoot
    lfoot ltoes
    rhipjoint rfemur
    rfemur rtibia
    rtibia rfoot
    rfoot rtoes
    lowerback upperback
    upperback thorax
    thorax lowerneck lclavicle rclavicle
    lowerneck upperneck
    upperneck head
    lclavicle lhumerus
    lhumerus lradius
    lradius lwrist
    lwrist lhand lthumb
    lhand lfingers
    rclavicle rhumerus
    rhumerus rradius
    rradius rwrist
    rwrist rhand rthumb
    rhand rfingers
  end

#!OML:ASF H:\Punching\Project 1\Capture day 1\Session 1\female.ASF
:FULLY-SPECIFIED
:DEGREES
262
root 1.48639 14.8975 -4.16352 23.5533 -42.2051 -9.56247
lowerback -1.72647 -0.603496 5.46355
upperback -5.12617 -0.863002 -1.50857
thorax -4.45671 -0.714161 -4.61367
lowerneck -0.115347 15.8205 22.5144
upperneck 12.9729 24.7619 -26.0163
head 10.5811 11.7028 -9.50642
rclavicle 1.49089e-015 1.90833e-014
rhumerus -8.86248 33.7922 -82.4367
rradius 130.178
rwrist -12.1853
rhand -30.2129 5.97915
rfingers 7.12502
rthumb -3.52303 -23.9715
lclavicle 1.49089e-015 1.90833e-014
lhumerus -15.3724 -6.94627 62.9687
lradius 141.818
lwrist -2.61015
lhand -32.1416 2.1186
lfingers 7.12502
lthumb -5.38543 32.0302
rfemur -12.3237 8.70508 20.9086
rtibia 27.0837
rfoot -30.0076 -17.7787
rtoes -9.25839
lfemur -45.8289 -8.80797 12.8694
ltibia 39.8438
lfoot -30.4126 31.9543
ltoes 39.823
263
root 1.48399 14.9001 -4.16825 23.654 -41.8616 -9.54611
lowerback -1.8231 -0.553043 5.62164
upperback -5.19033 -0.798416 -1.48675
thorax -4.46535 -0.690186 -4.68255
lowerneck -0.310717 15.7733 22.4249
upperneck 13.1124 24.6628 -25.8586
head 10.5972 11.641 -9.44571
rclavicle -4.99943e-014 -3.18055e-014
rhumerus -8.67417 33.698 -82.2498
rradius 130.287
rwrist -12.5176
rhand -30.2065 5.90381
rfingers 7.12502
rthumb -3.51691 -24.0469
lclavicle -4.99943e-014 -3.18055e-014
lhumerus -15.0804 -6.92631 62.7607
lradius 141.771
lwrist -2.54395
lhand -32.0122 2.21191
lfingers 7.12502
lthumb -5.26049 32.1266
rfemur -12.3273 8.56171 21.0357
rtibia 26.9207
rfoot -29.9267 -17.9386
rtoes -9.19419
lfemur -46.2673 -7.92894 12.5647
ltibia 40.0127
lfoot -28.5522 32.1041
ltoes 38.9002
264
root 1.48167 14.902 -4.16954 23.7668 -41.4885 -9.53435
lowerback -1.93209 -0.491994 5.79297
upperback -5.25644 -0.720497 -1.46562
thorax -4.46749 -0.660048 -4.75995
lowerneck -0.549477 15.7189 22.3297
upperneck 13.2751 24.5513 -25.6996
head 10.6259 11.5693 -9.38432
rclavicle -2.44505e-014 -1.90833e-014
rhumerus -8.45385 33.6265 -82.0556
rradius 130.366
rwrist -12.7486
rhand -30.298 5.89628
rfingers 7.12502
rthumb -3.60527 -24.053
lclavicle -2.44505e-014 -1.90833e-014
lhumerus -14.8107 -6.8851 62.5251
lradius 141.761
lwrist -2.42315
lhand -31.8968 2.33165
lfingers 7.12502
lthumb -5.1491 32.2491
rfemur -12.3156 8.39698 21.1678
rtibia 26.7332
rfoot -29.8434 -18.1019
rtoes -9.15576
lfemur -46.7551 -6.65317 12.0534
ltibia 40.244
lfoot -25.9412 32.1828
ltoes 37.4961
265
root 1.47926 14.9029 -4.16767 23.8656 -41.0876 -9.50682
lowerback -2.04022 -0.427801 5.95325
upperback -5.32407 -0.638681 -1.44556
thorax -4.4707 -0.627656 -4.83209
lowerneck -0.815137 15.659 22.2283
upperneck 13.4535 24.431 -25.5392
head 10.6623 11.4911 -9.32235
rclavicle -2.68359e-015 3.33958e-014
rhumerus -8.21777 33.585 -81.8696
rradius 130.414
rwrist -12.8715
rhand -30.4873 5.96551
rfingers 7.12502
rthumb -3.78801 -23.9806
lclavicle -2.68359e-015 3.33958e-014
lhumerus -14.5849 -6.81883 62.2605
lradius 141.782
lwrist -2.28074
lhand -31.8094 2.46219
lfingers 7.12502
lthumb -5.06471 32.3817
rfemur -12.2811 8.23484 21.2931
rtibia 26.54
rfoot -29.7788 -18.2941
rtoes -9.11628
lfemur -47.2944 -5.10976 11.3682
ltibia 40.5218
lfoot -22.824 32.0909
ltoes 35.7335
266
root 1.47664 14.9025 -4.16304 23.9334 -40.6563 -9.45269
lowerback -2.14281 -0.355417 6.09838
upperback -5.38921 -0.546036 -1.43183
thorax -4.47247 -0.589253 -4.90232
lowerneck -1.10633 15.5858 22.1016
upperneck 13.6472 24.2875 -25.3603
head 10.6961 11.3996 -9.2538
rclavicle -2.94201e-014 3.02153e-014
rhumerus -7.97891 33.5486 -81.6951
rradius 130.429
rwrist -12.8937
rhand -30.7674 6.11989
rfingers 7.12502
rthumb -4.05854 -23.8212
lclavicle -2.94201e-014 3.02153e-014
lhumerus -14.3867 -6.72804 61.9744
lradius 141.814
lwrist -2.1302
lhand -31.7449 2.56342
lfingers 7.12502
lthumb -5.00241 32.4844
rfemur -12.2168 8.09606 21.4085
rtibia 26.3548
rfoot -29.7447 -18.5446
rtoes -9.07818
lfemur -47.8862 -3.42758 10.5552
ltibia 40.8325
lfoot -19.4637 31.7526
ltoes 33.7434
267
root 1.47372 14.9006 -4.15551 23.9562 -40.1933 -9.36969
lowerback -2.22499 -0.277802 6.22455
upperback -5.45157 -0.445507 -1.42561
thorax -4.48119 -0.546406 -4.96958
lowerneck -1.41968 15.4991 21.9508
upperneck 13.858 24.12 -25.1554
head 10.7262 11.2954 -9.17648
rclavicle 4.8901e-014 7.95139e-015
rhumerus -7.75112 33.5092 -81.5404
rradius 130.42
rwrist -12.8447
rhand -31.1221 6.37327
rfingers 7.12502
rthumb -4.40107 -23.561
lclavicle 4.8901e-014 7.95139e-015
lhumerus -14.2277 -6.61875 61.6654
lradius 141.858
lwrist -1.97304
lhand -31.6972 2.63049
lfingers 7.12502
lthumb -4.95635 32.5525
rfemur -12.1094 7.99111 21.5145
rtibia 26.1851
rfoot -29.7519 -18.8645
rtoes -9.03306
lfemur -48.5175 -1.71582 9.65506
ltibia 41.1673
lfoot -16.1036 31.1311
ltoes 31.6708
